<svg xmlns="http://www.w3.org/2000/svg" xmlns:xlink="http://www.w3.org/1999/xlink" width="131" height="48" viewBox="0 0 131 48">
  <defs>
    <linearGradient id="linear-gradient" x1="0.5" x2="0.5" y2="1" gradientUnits="objectBoundingBox">
      <stop offset="0" stop-color="#70d0d3"/>
      <stop offset="1" stop-color="#048a8f"/>
    </linearGradient>
    <clipPath id="clip-aserto-horizontal-white-text">
      <rect width="131" height="48.033"/>
    </clipPath>
  </defs>
  <g id="aserto-horizontal-white-text" clip-path="url(#clip-aserto-horizontal-white-text)">
    <g id="Group_1" transform="translate(-294.001 -78.674)">
      <g id="Group_8" >
        <g id="Group_3" transform="translate(347.737 94.026)">
          <path id="Path_2" d="M350.609,71.44q-.35-1.023-.724-2.021t-.724-2.046h-7.291q-.35,1.048-.712,2.058t-.711,2.009h-3.264q.97-2.769,1.842-5.114t1.705-4.442q.833-2.1,1.655-3.992t1.693-3.743h3q.872,1.847,1.694,3.743t1.656,3.992q.835,2.1,1.719,4.441T354,71.44Zm-5.094-13.948q-.573,1.323-1.308,3.219t-1.532,4.117h5.679q-.8-2.22-1.544-4.142t-1.3-3.194" transform="translate(-337.183 -54.149)" fill="#fff"/>
          <path id="Path_3" d="M479.3,94.918a3.96,3.96,0,0,0,1.744-.287,1.019,1.019,0,0,0,.548-.985A1.279,1.279,0,0,0,481,92.572a8.606,8.606,0,0,0-1.931-.923,15.162,15.162,0,0,1-1.507-.636,5.13,5.13,0,0,1-1.183-.786,3.218,3.218,0,0,1-.785-1.085,3.788,3.788,0,0,1-.287-1.559,3.4,3.4,0,0,1,1.32-2.832,5.666,5.666,0,0,1,3.587-1.036,11.032,11.032,0,0,1,2.192.212,10.686,10.686,0,0,1,1.569.412l-.548,2.446a7.359,7.359,0,0,0-1.27-.412,7.668,7.668,0,0,0-1.793-.187,3.116,3.116,0,0,0-1.494.312,1.024,1.024,0,0,0-.573.961,1.386,1.386,0,0,0,.112.574,1.231,1.231,0,0,0,.386.461,3.921,3.921,0,0,0,.722.424,11.055,11.055,0,0,0,1.1.437,16.775,16.775,0,0,1,1.818.786,4.929,4.929,0,0,1,1.233.873,2.988,2.988,0,0,1,.71,1.11,4.442,4.442,0,0,1,.224,1.5,3.227,3.227,0,0,1-1.382,2.832,6.873,6.873,0,0,1-3.948.961,10.775,10.775,0,0,1-2.764-.287,14.2,14.2,0,0,1-1.47-.461l.523-2.52a13.479,13.479,0,0,0,1.607.524,8.275,8.275,0,0,0,2.129.249" transform="translate(-456.806 -80.137)" fill="#fff"/>
          <path id="Path_4" d="M564.1,90.621a8.21,8.21,0,0,1,.511-3.019,6.343,6.343,0,0,1,1.357-2.159,5.616,5.616,0,0,1,1.943-1.3,6.008,6.008,0,0,1,2.242-.437,5.361,5.361,0,0,1,4.2,1.672,7.243,7.243,0,0,1,1.507,4.992q0,.25-.012.562t-.037.562h-8.593a3.444,3.444,0,0,0,1.108,2.433,4.206,4.206,0,0,0,2.852.861,9.341,9.341,0,0,0,2-.2,8.241,8.241,0,0,0,1.432-.424l.4,2.47a4.765,4.765,0,0,1-.685.262,9.551,9.551,0,0,1-1,.25q-.561.112-1.208.187a11.487,11.487,0,0,1-1.32.075,7.976,7.976,0,0,1-2.989-.512,5.559,5.559,0,0,1-2.092-1.422,5.827,5.827,0,0,1-1.221-2.146,8.773,8.773,0,0,1-.4-2.707m8.742-1.347a3.988,3.988,0,0,0-.174-1.185,2.863,2.863,0,0,0-.511-.973,2.417,2.417,0,0,0-.822-.649,2.619,2.619,0,0,0-1.158-.237,2.694,2.694,0,0,0-1.221.262,2.783,2.783,0,0,0-.884.686,3.131,3.131,0,0,0-.56.973,5.265,5.265,0,0,0-.274,1.123Z" transform="translate(-534.088 -80.132)" fill="#fff"/>
          <path id="Path_5" d="M685.471,87.083a9.719,9.719,0,0,0-1.034-.262,7.617,7.617,0,0,0-1.532-.137,6.084,6.084,0,0,0-1.058.1,6.418,6.418,0,0,0-.785.175V97.413h-3.014V84.987a16.6,16.6,0,0,1,2.179-.611,13.58,13.58,0,0,1,2.9-.287q.3,0,.7.037t.8.1q.4.062.772.15t.6.162Z" transform="translate(-632.967 -80.114)" fill="#fff"/>
          <path id="Path_6" d="M753.749,56.908l3.014-.5v3.942H761.4v2.52h-4.633v5.315a3.867,3.867,0,0,0,.5,2.246,1.97,1.97,0,0,0,1.694.674,5.509,5.509,0,0,0,1.457-.175,9.734,9.734,0,0,0,1.009-.324l.5,2.4a11.283,11.283,0,0,1-1.37.461,7.444,7.444,0,0,1-1.992.237,6.292,6.292,0,0,1-2.329-.374,3.431,3.431,0,0,1-1.482-1.085,4.306,4.306,0,0,1-.772-1.722,10.709,10.709,0,0,1-.224-2.308Z" transform="translate(-698.654 -56.409)" fill="#fff"/>
          <path id="Path_7" d="M839.326,90.549a8.436,8.436,0,0,1-.448,2.82,6.243,6.243,0,0,1-1.27,2.171,5.707,5.707,0,0,1-1.981,1.4,6.391,6.391,0,0,1-2.553.5,6.3,6.3,0,0,1-2.541-.5,5.735,5.735,0,0,1-1.968-1.4,6.4,6.4,0,0,1-1.283-2.171,8.224,8.224,0,0,1-.461-2.82,8.12,8.12,0,0,1,.461-2.807,6.313,6.313,0,0,1,1.3-2.158,5.727,5.727,0,0,1,1.98-1.385,6.373,6.373,0,0,1,2.516-.487,6.466,6.466,0,0,1,2.528.487,5.579,5.579,0,0,1,1.98,1.385,6.425,6.425,0,0,1,1.283,2.158,8.128,8.128,0,0,1,.461,2.807m-3.088,0a5.1,5.1,0,0,0-.834-3.081,2.956,2.956,0,0,0-4.658,0,5.1,5.1,0,0,0-.834,3.081,5.2,5.2,0,0,0,.834,3.119,2.937,2.937,0,0,0,4.658,0,5.207,5.207,0,0,0,.834-3.119" transform="translate(-762.064 -80.135)" fill="#fff"/>
        </g>
        <path id="Subtraction_117" d="M-4025.98-3951.967a24.268,24.268,0,0,1-4.413-.4,23.863,23.863,0,0,1-4.132-1.16l13.348-26.174,11.083,21.734a24.174,24.174,0,0,1-3.411,2.515,23.979,23.979,0,0,1-3.836,1.889,23.9,23.9,0,0,1-4.183,1.189A24.221,24.221,0,0,1-4025.98-3951.967Zm19.185-9.567L-4025.98-4000a24.2,24.2,0,0,1,4.84.488,23.887,23.887,0,0,1,4.508,1.4,24.024,24.024,0,0,1,4.08,2.215,24.2,24.2,0,0,1,3.555,2.933,24.279,24.279,0,0,1,2.933,3.554,24.059,24.059,0,0,1,2.214,4.08,23.864,23.864,0,0,1,1.4,4.509,24.189,24.189,0,0,1,.488,4.839,23.982,23.982,0,0,1-1.278,7.751,23.937,23.937,0,0,1-3.553,6.7Zm-38.37,0a23.918,23.918,0,0,1-3.553-6.7,23.985,23.985,0,0,1-1.278-7.752,24.222,24.222,0,0,1,.49-4.85,23.929,23.929,0,0,1,1.4-4.5,24.025,24.025,0,0,1,2.215-4.08,24.223,24.223,0,0,1,2.933-3.555,24.2,24.2,0,0,1,3.554-2.932,24.02,24.02,0,0,1,4.079-2.216,23.9,23.9,0,0,1,4.509-1.4,24.206,24.206,0,0,1,4.839-.488Z" transform="translate(4343.998 4078.674)" fill="url(#linear-gradient)"/>
      </g>
    </g>
  </g>
</svg>
