<svg xmlns="http://www.w3.org/2000/svg" xmlns:xlink="http://www.w3.org/1999/xlink" width="260" height="160" viewBox="0 0 260 160">
  <defs>
    <radialGradient id="radial-gradient" cx="0.5" cy="0.5" r="0.524" gradientTransform="translate(0 -0.158) scale(1 1.316)" gradientUnits="objectBoundingBox">
      <stop offset="0" stop-color="#e7e7e7"/>
      <stop offset="1" stop-color="#a0a0a0"/>
    </radialGradient>
    <clipPath id="clip-Error_2">
      <rect width="260" height="160"/>
    </clipPath>
  </defs>
  <g id="Error_2" data-name="Error – 2" clip-path="url(#clip-Error_2)">
    <g id="Group_5" data-name="Group 5" transform="translate(-17 -67)">
      <g id="Group_2" data-name="Group 2" transform="matrix(0.996, 0.087, -0.087, 0.996, 11.428, -16.814)">
        <path id="Path_4" data-name="Path 4" d="M171.625,86.3c-6.091,6.539-17.974,5.906-25.793-.858-7.838-6.776-9.4-16.465-4.14-22.128,2.763-2.767,17.952-16.582,29.578-32.406C183.547,15.587,192.26-1.741,197.122.141c4.745,1.6,4.759,23.57-2.429,43.809C188.338,64.516,174.781,83.356,171.625,86.3Z" transform="translate(24 77.028)" fill="#888"/>
      </g>
      <g id="Group_4" data-name="Group 4" transform="matrix(0.996, 0.087, -0.087, 0.996, 13.619, -18.759)">
        <path id="Path_9" data-name="Path 9" d="M177.326,103.538c-8.222,3.5-18.823-1.9-23.222-11.26-4.411-9.375-1.9-18.864,5.2-21.9,3.648-1.406,23.139-7.861,40.189-17.6,17.441-9.012,32.44-21.308,36.119-17.613,3.684,3.393-5.225,23.472-20.012,39.046C201.444,90.422,181.4,102.132,177.326,103.538Z" transform="translate(24 77.028)" fill="#b8b8b8"/>
      </g>
      <path id="Path_15" data-name="Path 15" d="M170.811,119.059c-8.935-.137-16.43-9.379-16.653-19.715-.227-10.358,5.917-18.012,13.645-17.9,3.9.2,24.338,2.207,43.873.226,19.6-1.158,38.3-6.307,40.159-1.437,1.99,4.6-14.3,19.331-34.138,27.563C198.177,116.862,175.109,119.43,170.811,119.059Z" transform="matrix(0.996, 0.087, -0.087, 0.996, 33.369, 59.704)" fill="#d0d0d0"/>
      <g id="Group_1" data-name="Group 1" transform="matrix(0.996, -0.087, 0.087, 0.996, -10.286, 9.333)">
        <path id="Path_19" data-name="Path 19" d="M80.377,86.3c6.091,6.539,17.974,5.906,25.793-.858,7.838-6.776,9.4-16.465,4.139-22.128-2.762-2.767-17.952-16.582-29.577-32.406C68.455,15.587,59.742-1.741,54.879.141c-4.744,1.6-4.758,23.57,2.429,43.809C63.663,64.516,77.221,83.356,80.377,86.3Z" transform="translate(24 77.028)" fill="#888"/>
      </g>
      <g id="Group_3" data-name="Group 3" transform="matrix(0.996, -0.087, 0.087, 0.996, -12.477, 7.388)">
        <path id="Path_24" data-name="Path 24" d="M74.676,103.538c8.222,3.5,18.823-1.9,23.221-11.26,4.411-9.375,1.9-18.864-5.2-21.9-3.648-1.406-23.139-7.861-40.189-17.6-17.441-9.012-32.44-21.308-36.119-17.613C12.7,38.556,21.61,58.634,36.4,74.209,50.558,90.422,70.6,102.132,74.676,103.538Z" transform="translate(24 77.028)" fill="#b8b8b8"/>
      </g>
      <path id="Path_30" data-name="Path 30" d="M81.19,119.059c8.935-.137,16.43-9.379,16.653-19.715.226-10.358-5.918-18.012-13.645-17.9-3.9.2-24.338,2.207-43.873.226-19.6-1.158-38.3-6.307-40.16-1.437-1.989,4.6,14.3,19.331,34.138,27.563C53.824,116.862,76.893,119.43,81.19,119.059Z" transform="matrix(0.996, -0.087, 0.087, 0.996, 15.59, 81.667)" fill="#d0d0d0"/>
      <path id="Path_31" data-name="Path 31" d="M63.157,103.115c0,32.892,28.136,37.248,62.844,37.248s62.844-4.357,62.844-37.248S160.709,39.352,126,39.352,63.157,70.225,63.157,103.115Z" transform="translate(24 80.842)" fill="url(#radial-gradient)"/>
      <path id="Path_36" data-name="Path 36" d="M86.915,98.633a7.106,7.106,0,1,0-7.106-7.106A7.106,7.106,0,0,0,86.915,98.633Z" transform="translate(26 77.028)" fill="#3e3d42"/>
      <path id="Path_37" data-name="Path 37" d="M165.971,98.633a7.106,7.106,0,1,0-7.1-7.106A7.106,7.106,0,0,0,165.971,98.633Z" transform="translate(22 77.028)" fill="#3e3d42"/>
      <path id="Subtraction_1" data-name="Subtraction 1" d="M77.511,17.565l0,0c-3.1-3.4-8.113-6.278-14.487-8.336A72.721,72.721,0,0,0,41,6,72.722,72.722,0,0,0,18.977,9.226C12.606,11.284,7.6,14.165,4.492,17.56c1.249-4.833,5.6-9.273,12.249-12.5C23.456,1.8,32.072,0,41,0S58.544,1.8,65.26,5.057c6.652,3.23,11,7.671,12.251,12.5Z" transform="translate(108.998 186.888)" fill="#1e1e1e"/>
    </g>
  </g>
</svg>
