<svg width="330" height="200" viewBox="0 0 330 200" fill="none"
  xmlns="http://www.w3.org/2000/svg">
  <path d="M223.341 117.295C215.486 125.728 200.161 124.912 190.076 116.189C179.968 107.45 177.953 94.9548 184.738 87.6512C188.3 84.0825 207.89 66.2659 222.883 45.8581C238.717 26.1022 249.953 3.75452 256.225 6.18187C262.344 8.25122 262.362 36.5803 253.092 62.6813C244.896 89.2057 227.412 113.503 223.341 117.295Z" fill="#1F5355"/>
  <path d="M204.866 80.0542C212.728 77.4586 253.722 58.2588 254.74 57.7072C254.227 59.369 253.678 61.0296 253.092 62.6812C244.896 89.2063 227.412 113.503 223.341 117.295C215.486 125.728 200.161 124.911 190.076 116.188C186.27 112.898 183.612 109.074 182.139 105.196C182.525 103.313 183.194 87.2099 204.866 80.0542Z" fill="#23696C"/>
  <path d="M230.693 139.531C220.09 144.047 206.418 137.076 200.745 125.01C195.056 112.919 198.291 100.682 207.456 96.7633C212.161 94.9498 237.298 86.6248 259.288 74.064C281.781 62.4414 301.125 46.5836 305.87 51.3488C310.62 55.7249 299.131 81.6196 280.06 101.706C261.798 122.616 235.953 137.718 230.693 139.531Z" fill="#277F82"/>
  <path d="M276.849 80.1949C275.667 83.5407 274.335 86.8994 272.843 90.2074C262.492 115.967 243.066 138.743 238.697 142.187C230.175 149.945 214.969 147.869 205.637 138.346C196.281 128.805 195.303 116.185 202.665 109.465C203.397 108.845 272.951 82.0837 276.849 80.1949Z" fill="#2F989C"/>
  <path d="M222.292 159.548C210.769 159.372 201.102 147.452 200.815 134.122C200.523 120.763 208.446 110.892 218.413 111.031C223.448 111.283 249.801 113.877 274.995 111.323C300.269 109.83 324.385 103.189 326.787 109.47C329.353 115.398 308.343 134.401 282.761 145.017C257.586 156.715 227.835 160.027 222.292 159.548Z" fill="#36B1B5"/>
  <path d="M105.66 117.295C113.516 125.728 128.841 124.912 138.925 116.189C149.034 107.45 151.049 94.9547 144.264 87.6511C140.701 84.0824 121.112 66.2657 106.119 45.8579C90.285 26.102 79.0483 3.75438 72.7768 6.18174C66.6583 8.25108 66.6399 36.5801 75.91 62.6812C84.1055 89.2056 101.59 113.503 105.66 117.295Z" fill="#1F5355"/>
  <path d="M124.135 80.0543C116.274 77.4587 75.2799 58.2589 74.2617 57.7072C74.7746 59.3691 75.3237 61.0296 75.9102 62.6813C84.1057 89.2063 101.59 113.503 105.661 117.295C113.516 125.728 128.841 124.911 138.926 116.188C142.732 112.898 145.39 109.074 146.863 105.196C146.477 103.313 145.808 87.21 124.135 80.0543Z" fill="#23696C"/>
  <path d="M98.3082 139.531C108.911 144.047 122.584 137.076 128.257 125.01C133.945 112.92 130.711 100.682 121.545 96.7634C116.841 94.9499 91.7035 86.6249 69.7138 74.0641C47.2208 62.4415 27.8763 46.5838 23.132 51.349C18.3814 55.725 29.8701 81.6198 48.9417 101.706C67.2033 122.616 93.0492 137.718 98.3082 139.531Z" fill="#277F82"/>
  <path d="M51.3955 80.195C52.5775 83.5408 53.9097 86.8994 55.4014 90.2075C65.7529 115.967 85.1787 138.743 89.5477 142.186C98.0704 149.944 113.276 147.868 122.608 138.345C131.963 128.804 132.942 116.184 125.58 109.464C124.848 108.844 55.2932 82.0838 51.3955 80.195Z" fill="#2F989C"/>
  <path d="M106.709 159.548C118.232 159.372 127.899 147.452 128.187 134.122C128.479 120.763 120.555 110.892 110.588 111.031C105.553 111.283 79.1998 113.877 54.0059 111.323C28.7313 109.829 4.61518 103.188 2.21259 109.47C-0.353147 115.397 20.657 134.401 46.2395 145.017C71.4163 156.714 101.167 160.027 106.709 159.548Z" fill="#36B1B5"/>
  <path d="M245.55 143.529C245.55 188.292 209.263 194.221 164.501 194.221C119.739 194.221 83.4515 188.291 83.4515 143.529C83.4515 98.7673 119.737 56.7513 164.5 56.7513C209.263 56.7513 245.55 98.7673 245.55 143.529Z" fill="url(#paint0_linear_25_2)"/>
  <path d="M148.999 78.5561C142.073 80.9434 136.003 84.6488 130.957 89.5684C128.989 91.4861 125.84 91.4464 123.922 89.4787C122.004 87.511 122.044 84.3617 124.012 82.444C130.117 76.4924 137.432 72.0196 145.755 69.1491C148.352 68.2535 151.188 69.6318 152.079 72.2301C153.28 75.7266 149.716 78.3084 148.999 78.5561Z" fill="#AAF9FC"/>
  <path d="M114.092 133.205C119.154 133.205 123.256 129.102 123.256 124.041C123.256 118.98 119.154 114.877 114.092 114.877C109.031 114.877 104.928 118.98 104.928 124.041C104.928 129.102 109.031 133.205 114.092 133.205Z" fill="#121212"/>
  <path d="M216.051 133.204C221.112 133.204 225.215 129.101 225.215 124.04C225.215 118.979 221.112 114.876 216.051 114.876C210.989 114.876 206.886 118.979 206.886 124.04C206.886 129.101 210.989 133.204 216.051 133.204Z" fill="#121212"/>
  <path d="M163.602 161.551C169.838 161.551 175.61 160.65 180.92 158.847C186.23 157.045 191.15 154.39 195.681 150.882L198.969 155.705C194.341 159.505 189.007 162.549 182.966 164.839C176.974 167.177 170.52 168.346 163.602 168.346C156.685 168.346 150.206 167.177 144.166 164.839C138.174 162.549 132.864 159.505 128.236 155.705L131.524 150.882C136.055 154.39 140.975 157.045 146.285 158.847C151.594 160.65 157.367 161.551 163.602 161.551Z" fill="#121212"/>
  <defs>
    <linearGradient id="paint0_linear_25_2" x1="164.501" y1="56.7513" x2="164.501" y2="194.221" gradientUnits="userSpaceOnUse">
      <stop stop-color="#70D0D3"/>
      <stop offset="1" stop-color="#057B80"/>
    </linearGradient>
  </defs>
</svg>
