<svg width="36" height="36" viewBox="0 0 36 36" fill="none" xmlns="http://www.w3.org/2000/svg">
<path d="M26 28C25.3838 28.0006 24.7689 27.9448 24.1628 27.8333C23.5754 27.7243 22.9989 27.5626 22.4406 27.35L27.9961 16.4516L32.6111 25.5011C32.1691 25.891 31.6938 26.2415 31.1906 26.5483C30.6826 26.8575 30.1481 27.1208 29.5933 27.335C29.029 27.5525 28.446 27.7183 27.8517 27.83C27.241 27.9436 26.6211 28.0004 26 28V28ZM33.9883 24.0167L26 8C26.677 7.9996 27.3522 8.06753 28.0155 8.20277C28.6588 8.33456 29.2875 8.52981 29.8923 8.78559C30.4871 9.03737 31.0559 9.34617 31.5911 9.70776C32.1222 10.0671 32.6178 10.4763 33.0711 10.93C33.5246 11.3834 33.9338 11.879 34.2933 12.41C34.6548 12.9452 34.9636 13.5142 35.2155 14.1089C35.4714 14.7139 35.6666 15.3426 35.7983 15.9861C35.933 16.6489 36.0006 17.3236 36 18C36.0011 19.0977 35.8213 20.1881 35.4678 21.2273C35.1259 22.2296 34.6265 23.171 33.9883 24.0162V24.0167ZM18.0117 24.0167C17.3734 23.1716 16.874 22.2302 16.5322 21.2278C16.1785 20.1885 15.9987 19.0979 16 18C15.9999 17.3217 16.0682 16.6451 16.2039 15.9805C16.3358 15.3387 16.5307 14.7114 16.7856 14.1077C17.0375 13.5132 17.3463 12.9445 17.7078 12.4095C18.0672 11.8784 18.4764 11.3828 18.93 10.9294C19.3833 10.4759 19.8789 10.0666 20.41 9.70722C20.9452 9.34567 21.5142 9.03687 22.1089 8.78505C22.7139 8.52935 23.3427 8.3341 23.9861 8.20223C24.6489 8.06748 25.3236 7.99972 26 8L18.0117 24.0167Z" fill="url(#paint0_linear_5_50)"/>
<path d="M2 36C0.895431 36 -3.91405e-08 35.1046 -8.74228e-08 34L-1.48619e-06 2C-1.53447e-06 0.895431 0.895429 -3.91405e-08 2 -8.74228e-08V-8.74228e-08C3.10457 -1.35705e-07 4 0.89543 4 2L4 34C4 35.1046 3.10457 36 2 36V36Z" fill="#4A92FF"/>
<circle cx="7" cy="22" r="1" transform="rotate(-90 7 22)" fill="#4A92FF"/>
<circle cx="10" cy="22" r="1" transform="rotate(-90 10 22)" fill="#4A92FF"/>
<circle cx="13" cy="22" r="1" transform="rotate(-90 13 22)" fill="#4A92FF"/>
<circle cx="7" cy="16" r="1" transform="rotate(-90 7 16)" fill="#48B6BA"/>
<circle cx="10" cy="16" r="1" transform="rotate(-90 10 16)" fill="#48B6BA"/>
<circle cx="13" cy="16" r="1" transform="rotate(-90 13 16)" fill="#48B6BA"/>
<defs>
<linearGradient id="paint0_linear_5_50" x1="26" y1="8" x2="26" y2="28" gradientUnits="userSpaceOnUse">
<stop stop-color="#70D0D3"/>
<stop offset="1" stop-color="#048A8F"/>
</linearGradient>
</defs>
</svg>
