
<svg xmlns="http://www.w3.org/2000/svg" xmlns:xlink="http://www.w3.org/1999/xlink" width="36" height="36" viewBox="0 0 36 36">
    <defs>
      <linearGradient id="linear-gradient" x1="0.5" x2="0.5" y2="1" gradientUnits="objectBoundingBox">
        <stop offset="0" stop-color="#70d0d3"/>
        <stop offset="1" stop-color="#048a8f"/>
      </linearGradient>
      <clipPath id="clip-Aserto-logo">
        <rect width="36" height="36"/>
      </clipPath>
    </defs>
    <g id="Aserto-logo" clip-path="url(#clip-Aserto-logo)">
      <rect width="36" height="36" fill="rgba(18,18,18,0)"/>
      <g id="Group_13" data-name="Group 13" transform="translate(-726.339 -78.675)">
        <path id="Subtraction_117" data-name="Subtraction 117" d="M-4032-3964a18.168,18.168,0,0,1-3.307-.3,17.888,17.888,0,0,1-3.1-.87l10-19.617,8.307,16.289a18.136,18.136,0,0,1-2.557,1.885,17.992,17.992,0,0,1-2.875,1.416,17.93,17.93,0,0,1-3.135.891A18.169,18.169,0,0,1-4032-3964Zm14.379-7.17L-4032-4000a18.106,18.106,0,0,1,3.628.365,17.889,17.889,0,0,1,3.378,1.049,17.985,17.985,0,0,1,3.058,1.66,18.121,18.121,0,0,1,2.664,2.2,18.181,18.181,0,0,1,2.2,2.664,18.015,18.015,0,0,1,1.66,3.058,17.867,17.867,0,0,1,1.049,3.379A18.118,18.118,0,0,1-4014-3982a17.978,17.978,0,0,1-.958,5.809,17.94,17.94,0,0,1-2.663,5.02Zm-28.758,0a17.927,17.927,0,0,1-2.663-5.02A17.966,17.966,0,0,1-4050-3982a18.15,18.15,0,0,1,.367-3.635,17.96,17.96,0,0,1,1.047-3.371,18,18,0,0,1,1.66-3.057,18.152,18.152,0,0,1,2.2-2.664,18.145,18.145,0,0,1,2.664-2.2,18,18,0,0,1,3.058-1.66,17.922,17.922,0,0,1,3.379-1.049A18.157,18.157,0,0,1-4032-4000Z" transform="translate(4776.336 4078.675)" fill="url(#linear-gradient)"/>
      </g>
    </g>
  </svg>
